999
"DXF R12 Output" (www.mydxf.blogspot.com)
 0 
SECTION
 2 
HEADER
 9 
$ACADVER
 1 
AC1009
 9 
$EXTMIN
 10 
 0 
 20 
 0 
 9 
$EXTMAX
 10 
 8.5 
 20 
 11 
 0 
ENDSEC
 0 
SECTION
 2 
ENTITIES
0
LINE
8
Layer 1
10
0.793749
20
301.831000
11
-0.793749
21
300.243000
0
LINE
8
Layer 1
10
0.000000
20
302.360000
11
0.000000
21
299.714000
0
LINE
8
Layer 1
10
2.116660
20
299.979000
11
1.058330
21
298.920670
0
LINE
8
Layer 1
10
1.587500
20
300.508000
11
0.529170
21
299.449670
0
LINE
8
Layer 1
10
1.058330
20
301.037000
11
0.000000
21
299.978670
0
LINE
8
0
10
205.887000
20
69.955100
11
199.707000
21
71.787900
0
LINE
8
0
10
199.707000
20
71.787900
11
195.885000
21
80.951700
0
LINE
8
0
10
195.885000
20
80.951700
11
191.512000
21
73.849800
0
LINE
8
0
10
191.512000
20
73.849800
11
186.403000
21
75.085900
0
LINE
8
0
10
186.403000
20
75.085900
11
193.514000
21
86.635300
0
LINE
8
0
10
193.514000
20
86.635300
11
187.962000
21
99.945800
0
LINE
8
0
10
187.962000
20
99.945800
11
193.378000
21
99.945800
0
LINE
8
0
10
193.378000
20
99.945800
11
196.743000
21
91.879300
0
LINE
8
0
10
196.743000
20
91.879300
11
201.709000
21
99.945800
0
LINE
8
0
10
201.709000
20
99.945800
11
207.579000
21
99.945800
0
LINE
8
0
10
207.579000
20
99.945800
11
199.113470
21
86.195700
0
LINE
8
0
10
199.113470
20
86.195700
11
205.887000
21
69.955100
0
LINE
8
0
10
131.077000
20
79.618800
11
125.532060
21
79.296420
0
LINE
8
0
10
125.532060
20
79.296420
11
123.412700
21
81.434920
0
LINE
8
0
10
123.412700
20
81.434920
11
121.746550
21
81.284952
0
LINE
8
0
10
121.746550
20
81.284952
11
121.746000
21
79.076300
0
LINE
8
0
10
121.746000
20
79.076300
11
116.747540
21
78.785692
0
LINE
8
0
10
116.747540
20
78.785692
11
116.748000
21
99.945800
0
LINE
8
0
10
116.748000
20
99.945800
11
121.746000
21
99.945800
0
LINE
8
0
10
121.746000
20
99.945800
11
123.216431
21
99.829651
0
LINE
8
0
10
123.216431
20
99.829651
11
124.624377
21
99.491323
0
LINE
8
0
10
124.624377
20
99.491323
11
125.948608
21
98.945973
0
LINE
8
0
10
125.948608
20
98.945973
11
127.167895
21
98.208761
0
LINE
8
0
10
127.167895
20
98.208761
11
128.261010
21
97.294845
0
LINE
8
0
10
128.261010
20
97.294845
11
129.206723
21
96.219382
0
LINE
8
0
10
129.206723
20
96.219382
11
129.983805
21
94.997530
0
LINE
8
0
10
129.983805
20
94.997530
11
130.571027
21
93.644450
0
LINE
8
0
10
130.571027
20
93.644450
11
130.938547
21
92.215958
0
LINE
8
0
10
130.938547
20
92.215958
11
131.075635
21
90.774437
0
LINE
8
0
10
131.075635
20
90.774437
11
130.989738
21
89.344886
0
LINE
8
0
10
130.989738
20
89.344886
11
130.688301
21
87.952306
0
LINE
8
0
10
130.688301
20
87.952306
11
130.178768
21
86.621697
0
LINE
8
0
10
130.178768
20
86.621697
11
129.468585
21
85.378060
0
LINE
8
0
10
129.468585
20
85.378060
11
128.565198
21
84.246394
0
LINE
8
0
10
128.565198
20
84.246394
11
127.476050
21
83.251700
0
LINE
8
0
10
127.476050
20
83.251700
11
131.077000
21
79.618800
0
LINE
8
0
10
166.300000
20
78.452500
11
174.633530
21
99.945900
0
LINE
8
0
10
174.633530
20
99.945900
11
184.627660
21
75.620100
0
LINE
8
0
10
184.627660
20
75.620100
11
179.687850
21
76.383525
0
LINE
8
0
10
179.687850
20
76.383525
11
178.243160
21
79.899905
0
LINE
8
0
10
178.243160
20
79.899905
11
172.444440
21
80.796070
0
LINE
8
0
10
172.444440
20
80.796070
11
171.239800
21
77.689130
0
LINE
8
0
10
171.239800
20
77.689130
11
166.300000
21
78.452500
0
LINE
8
0
10
147.142000
20
99.945800
11
162.970000
21
99.945800
0
LINE
8
0
10
162.970000
20
99.945800
11
162.970000
21
94.947400
0
LINE
8
0
10
162.970000
20
94.947400
11
152.140000
21
94.947400
0
LINE
8
0
10
152.140000
20
94.947400
11
152.140000
21
88.282800
0
LINE
8
0
10
152.140000
20
88.282800
11
160.468000
21
88.282800
0
LINE
8
0
10
160.468000
20
88.282800
11
160.468000
21
83.284300
0
LINE
8
0
10
160.468000
20
83.284300
11
152.137000
21
83.284300
0
LINE
8
0
10
152.137000
20
83.284300
11
152.137000
21
79.618800
0
LINE
8
0
10
152.137000
20
79.618800
11
147.141320
21
79.785415
0
LINE
8
0
10
147.141320
20
79.785415
11
147.142000
21
99.945800
0
LINE
8
0
10
136.312000
20
99.945800
11
141.310000
21
99.945800
0
LINE
8
0
10
141.310000
20
99.945800
11
141.310000
21
79.952000
0
LINE
8
0
10
141.310000
20
79.952000
11
136.312000
21
79.952000
0
LINE
8
0
10
136.312000
20
79.952000
11
136.312000
21
99.945800
0
LINE
8
0
10
90.922600
20
99.945800
11
95.921000
21
99.945800
0
LINE
8
0
10
95.921000
20
99.945800
11
95.921000
21
85.783500
0
LINE
8
0
10
95.921000
20
85.783500
11
96.015269
21
84.861134
0
LINE
8
0
10
96.015269
20
84.861134
11
96.283016
21
84.002184
0
LINE
8
0
10
96.283016
20
84.002184
11
96.705856
21
83.225009
0
LINE
8
0
10
96.705856
20
83.225009
11
97.265402
21
82.547970
0
LINE
8
0
10
97.265402
20
82.547970
11
97.943268
21
81.989425
0
LINE
8
0
10
97.943268
20
81.989425
11
98.721066
21
81.567733
0
LINE
8
0
10
98.721066
20
81.567733
11
99.580411
21
81.301255
0
LINE
8
0
10
99.580411
20
81.301255
11
100.502915
21
81.208349
0
LINE
8
0
10
100.502915
20
81.208349
11
101.425419
21
81.301255
0
LINE
8
0
10
101.425419
20
81.301255
11
102.284764
21
81.567733
0
LINE
8
0
10
102.284764
20
81.567733
11
103.062562
21
81.989425
0
LINE
8
0
10
103.062562
20
81.989425
11
103.740428
21
82.547970
0
LINE
8
0
10
103.740428
20
82.547970
11
104.299974
21
83.225009
0
LINE
8
0
10
104.299974
20
83.225009
11
104.722814
21
84.002184
0
LINE
8
0
10
104.722814
20
84.002184
11
104.990561
21
84.861134
0
LINE
8
0
10
104.990561
20
84.861134
11
105.084830
21
85.783500
0
LINE
8
0
10
105.084830
20
85.783500
11
105.085000
21
99.945800
0
LINE
8
0
10
105.085000
20
99.945800
11
110.083000
21
99.945800
0
LINE
8
0
10
110.083000
20
99.945800
11
110.083000
21
85.783500
0
LINE
8
0
10
110.083000
20
85.783500
11
109.884949
21
83.855760
0
LINE
8
0
10
109.884949
20
83.855760
11
109.324501
21
82.060676
0
LINE
8
0
10
109.324501
20
82.060676
11
108.440070
21
80.436582
0
LINE
8
0
10
108.440070
20
80.436582
11
107.270070
21
79.021814
0
LINE
8
0
10
107.270070
20
79.021814
11
105.852914
21
77.854707
0
LINE
8
0
10
105.852914
20
77.854707
11
104.227017
21
76.973596
0
LINE
8
0
10
104.227017
20
76.973596
11
102.430791
21
76.416818
0
LINE
8
0
10
102.430791
20
76.416818
11
100.502650
21
76.222706
0
LINE
8
0
10
100.502650
20
76.222706
11
98.574509
21
76.416818
0
LINE
8
0
10
98.574509
20
76.416818
11
96.778283
21
76.973596
0
LINE
8
0
10
96.778283
20
76.973596
11
95.152386
21
77.854707
0
LINE
8
0
10
95.152386
20
77.854707
11
93.735230
21
79.021814
0
LINE
8
0
10
93.735230
20
79.021814
11
92.565230
21
80.436582
0
LINE
8
0
10
92.565230
20
80.436582
11
91.680799
21
82.060676
0
LINE
8
0
10
91.680799
20
82.060676
11
91.120351
21
83.855760
0
LINE
8
0
10
91.120351
20
83.855760
11
90.922300
21
85.783500
0
LINE
8
0
10
90.922300
20
85.783500
11
90.922600
21
99.945800
0
LINE
8
0
10
74.261000
20
99.945800
11
79.259500
21
99.945800
0
LINE
8
0
10
79.259500
20
99.945800
11
79.259500
21
76.619700
0
LINE
8
0
10
79.259500
20
76.619700
11
87.257030
21
78.619080
0
LINE
8
0
10
87.257030
20
78.619080
11
87.257000
21
73.620600
0
LINE
8
0
10
87.257000
20
73.620600
11
74.261000
21
69.955070
0
LINE
8
0
10
74.261000
20
69.955070
11
74.261000
21
99.945800
 0 
ENDSEC
 0 
EOF