999
"DXF R12 Output" (www.mydxf.blogspot.com)
 0 
SECTION
 2 
HEADER
 9 
$ACADVER
 1 
AC1009
 9 
$EXTMIN
 10 
 0 
 20 
 0 
 9 
$EXTMAX
 10 
 8.5 
 20 
 11 
 0 
ENDSEC
 0 
SECTION
 2 
ENTITIES
0
LINE
8
Layer 1
10
279.235000
20
68.326700
11
264.497800
21
87.785200
0
LINE
8
Layer 1
10
264.497800
20
87.785200
11
254.216100
21
74.552400
0
LINE
8
Layer 1
10
254.216100
20
74.552400
11
242.144800
21
76.640110
0
LINE
8
Layer 1
10
242.144800
20
76.640110
11
257.395200
21
95.577210
0
LINE
8
Layer 1
10
257.395200
20
95.577210
11
238.384900
21
121.392110
0
LINE
8
Layer 1
10
238.384900
20
121.392110
11
251.904500
21
121.382215
0
LINE
8
Layer 1
10
251.904500
20
121.382215
11
264.469200
21
103.104415
0
LINE
8
Layer 1
10
264.469200
20
103.104415
11
277.142100
21
121.393015
0
LINE
8
Layer 1
10
277.142100
20
121.393015
11
290.557700
21
121.369864
0
LINE
8
Layer 1
10
290.557700
20
121.369864
11
271.603000
21
95.403364
0
LINE
8
Layer 1
10
271.603000
20
95.403364
11
298.284300
21
62.101064
0
LINE
8
Layer 1
10
298.284300
20
62.101064
11
279.235000
21
68.326700
0
LINE
8
Layer 1
10
3.174890
20
121.393000
11
13.649800
21
121.393000
0
LINE
8
Layer 1
10
13.649800
20
121.393000
11
13.924211
21
76.601500
0
LINE
8
Layer 1
10
13.924211
20
76.601500
11
34.698411
21
82.072300
0
LINE
8
Layer 1
10
34.698411
20
82.072300
11
34.698400
21
72.566400
0
LINE
8
Layer 1
10
34.698400
20
72.566400
11
3.298630
21
62.298700
0
LINE
8
Layer 1
10
3.298630
20
62.298700
11
3.174890
21
121.393000
0
LINE
8
Layer 1
10
37.103900
20
91.860900
11
36.576049
21
121.393100
0
LINE
8
Layer 1
10
36.576049
20
121.393100
11
48.224200
21
121.393000
0
LINE
8
Layer 1
10
48.224200
20
121.393000
11
48.335584
21
93.220500
0
LINE
8
Layer 1
10
48.335584
20
93.220500
11
49.027665
21
91.497138
0
LINE
8
Layer 1
10
49.027665
20
91.497138
11
49.975947
21
90.020273
0
LINE
8
Layer 1
10
49.975947
20
90.020273
11
51.143870
21
88.785988
0
LINE
8
Layer 1
10
51.143870
20
88.785988
11
52.494879
21
87.790361
0
LINE
8
Layer 1
10
52.494879
20
87.790361
11
53.992415
21
87.029475
0
LINE
8
Layer 1
10
53.992415
20
87.029475
11
55.599921
21
86.499410
0
LINE
8
Layer 1
10
55.599921
20
86.499410
11
57.280839
21
86.196246
0
LINE
8
Layer 1
10
57.280839
20
86.196246
11
58.998613
21
86.116065
0
LINE
8
Layer 1
10
58.998613
20
86.116065
11
60.716684
21
86.254947
0
LINE
8
Layer 1
10
60.716684
20
86.254947
11
62.398495
21
86.608973
0
LINE
8
Layer 1
10
62.398495
20
86.608973
11
64.007489
21
87.174225
0
LINE
8
Layer 1
10
64.007489
20
87.174225
11
65.507107
21
87.946781
0
LINE
8
Layer 1
10
65.507107
20
87.946781
11
66.860794
21
88.922724
0
LINE
8
Layer 1
10
66.860794
20
88.922724
11
68.031990
21
90.098135
0
LINE
8
Layer 1
10
68.031990
20
90.098135
11
68.984140
21
91.469093
0
LINE
8
Layer 1
10
68.984140
20
91.469093
11
69.680684
21
93.031680
0
LINE
8
Layer 1
10
69.680684
20
93.031680
11
69.789594
21
121.392980
0
LINE
8
Layer 1
10
69.789594
20
121.392980
11
81.654400
21
121.393000
0
LINE
8
Layer 1
10
81.654400
20
121.393000
11
81.512642
21
107.135312
0
LINE
8
Layer 1
10
81.512642
20
107.135312
11
81.352408
21
96.610333
0
LINE
8
Layer 1
10
81.352408
20
96.610333
11
81.147679
21
90.307600
0
LINE
8
Layer 1
10
81.147679
20
90.307600
11
80.650736
21
88.676924
0
LINE
8
Layer 1
10
80.650736
20
88.676924
11
79.994836
21
87.137063
0
LINE
8
Layer 1
10
79.994836
20
87.137063
11
79.190202
21
85.689771
0
LINE
8
Layer 1
10
79.190202
20
85.689771
11
78.247054
21
84.336798
0
LINE
8
Layer 1
10
78.247054
20
84.336798
11
77.175616
21
83.079897
0
LINE
8
Layer 1
10
77.175616
20
83.079897
11
75.986109
21
81.920820
0
LINE
8
Layer 1
10
75.986109
20
81.920820
11
73.293776
21
79.903147
0
LINE
8
Layer 1
10
73.293776
20
79.903147
11
70.251832
21
78.297795
0
LINE
8
Layer 1
10
70.251832
20
78.297795
11
66.942052
21
77.118780
0
LINE
8
Layer 1
10
66.942052
20
77.118780
11
63.446212
21
76.380118
0
LINE
8
Layer 1
10
63.446212
20
76.380118
11
59.846088
21
76.095828
0
LINE
8
Layer 1
10
59.846088
20
76.095828
11
56.223456
21
76.279924
0
LINE
8
Layer 1
10
56.223456
20
76.279924
11
52.660091
21
76.946423
0
LINE
8
Layer 1
10
52.660091
20
76.946423
11
49.237771
21
78.109343
0
LINE
8
Layer 1
10
49.237771
20
78.109343
11
46.038270
21
79.782699
0
LINE
8
Layer 1
10
46.038270
20
79.782699
11
44.547632
21
80.815171
0
LINE
8
Layer 1
10
44.547632
20
80.815171
11
43.143364
21
81.980508
0
LINE
8
Layer 1
10
43.143364
20
81.980508
11
41.835690
21
83.280463
0
LINE
8
Layer 1
10
41.835690
20
83.280463
11
40.634830
21
84.716787
0
LINE
8
Layer 1
10
40.634830
20
84.716787
11
39.551007
21
86.291233
0
LINE
8
Layer 1
10
39.551007
20
86.291233
11
38.594443
21
88.005552
0
LINE
8
Layer 1
10
38.594443
20
88.005552
11
37.775360
21
89.861497
0
LINE
8
Layer 1
10
37.775360
20
89.861497
11
37.103979
21
91.860820
0
LINE
8
Layer 1
10
37.103979
20
91.860820
11
37.103900
21
91.860900
0
LINE
8
Layer 1
10
221.271900
20
79.927700
11
218.356520
21
85.224950
0
LINE
8
Layer 1
10
218.356520
20
85.224950
11
207.585000
21
85.224900
0
LINE
8
Layer 1
10
207.585000
20
85.224900
11
205.639040
21
80.902840
0
LINE
8
Layer 1
10
205.639040
20
80.902840
11
191.394540
21
81.553399
0
LINE
8
Layer 1
10
191.394540
20
81.553399
11
213.184840
21
121.390099
0
LINE
8
Layer 1
10
213.184840
20
121.390099
11
234.970240
21
77.929999
0
LINE
8
Layer 1
10
234.970240
20
77.929999
11
221.271900
21
79.927700
0
LINE
8
Layer 1
10
87.171900
20
121.393000
11
95.155300
21
121.393000
0
LINE
8
Layer 1
10
95.155300
20
121.393000
11
101.332360
21
121.251555
0
LINE
8
Layer 1
10
101.332360
20
121.251555
11
105.685181
21
120.940375
0
LINE
8
Layer 1
10
105.685181
20
120.940375
11
109.109900
21
120.487750
0
LINE
8
Layer 1
10
109.109900
20
120.487750
11
112.037718
21
119.672276
0
LINE
8
Layer 1
10
112.037718
20
119.672276
11
114.604215
21
118.512203
0
LINE
8
Layer 1
10
114.604215
20
118.512203
11
116.812068
21
117.049644
0
LINE
8
Layer 1
10
116.812068
20
117.049644
11
118.663949
21
115.326714
0
LINE
8
Layer 1
10
118.663949
20
115.326714
11
120.162533
21
113.385525
0
LINE
8
Layer 1
10
120.162533
20
113.385525
11
121.310493
21
111.268190
0
LINE
8
Layer 1
10
121.310493
20
111.268190
11
122.110505
21
109.016824
0
LINE
8
Layer 1
10
122.110505
20
109.016824
11
122.565241
21
106.673538
0
LINE
8
Layer 1
10
122.565241
20
106.673538
11
122.677377
21
104.280446
0
LINE
8
Layer 1
10
122.677377
20
104.280446
11
122.449586
21
101.879661
0
LINE
8
Layer 1
10
122.449586
20
101.879661
11
121.884542
21
99.513297
0
LINE
8
Layer 1
10
121.884542
20
99.513297
11
120.984920
21
97.223467
0
LINE
8
Layer 1
10
120.984920
20
97.223467
11
119.753394
21
95.052284
0
LINE
8
Layer 1
10
119.753394
20
95.052284
11
118.192637
21
93.041862
0
LINE
8
Layer 1
10
118.192637
20
93.041862
11
116.305325
21
91.234312
0
LINE
8
Layer 1
10
116.305325
20
91.234312
11
114.094130
21
89.671750
0
LINE
8
Layer 1
10
114.094130
20
89.671750
11
118.482975
21
84.911725
0
LINE
8
Layer 1
10
118.482975
20
84.911725
11
121.137790
21
82.181950
0
LINE
8
Layer 1
10
121.137790
20
82.181950
11
108.615790
21
81.445187
0
LINE
8
Layer 1
10
108.615790
20
81.445187
11
103.546360
21
87.073427
0
LINE
8
Layer 1
10
103.546360
20
87.073427
11
98.634970
21
86.945607
0
LINE
8
Layer 1
10
98.634970
20
86.945607
11
98.635000
21
81.098700
0
LINE
8
Layer 1
10
98.635000
20
81.098700
11
87.073100
21
80.481550
0
LINE
8
Layer 1
10
87.073100
20
80.481550
11
87.171900
21
121.393000
0
LINE
8
Layer 1
10
152.393000
20
82.463900
11
152.393000
21
121.393000
0
LINE
8
Layer 1
10
152.393000
20
121.393000
11
190.340000
21
121.393000
0
LINE
8
Layer 1
10
190.340000
20
121.393000
11
190.340000
21
112.302000
0
LINE
8
Layer 1
10
190.340000
20
112.302000
11
164.647000
21
112.302000
0
LINE
8
Layer 1
10
164.647000
20
112.302000
11
164.647000
21
97.478600
0
LINE
8
Layer 1
10
164.647000
20
97.478600
11
184.411000
21
97.478600
0
LINE
8
Layer 1
10
184.411000
20
97.478600
11
184.411000
21
88.387200
0
LINE
8
Layer 1
10
184.411000
20
88.387200
11
164.647000
21
88.387200
0
LINE
8
Layer 1
10
164.647000
20
88.387200
11
164.648323
21
82.431050
0
LINE
8
Layer 1
10
164.648323
20
82.431050
11
152.393000
21
82.463900
0
LINE
8
Layer 1
10
131.641000
20
121.393000
11
143.302000
21
121.393000
0
LINE
8
Layer 1
10
143.302000
20
121.393000
11
143.302000
21
82.458000
0
LINE
8
Layer 1
10
143.302000
20
82.458000
11
131.641000
21
82.458000
0
LINE
8
Layer 1
10
131.641000
20
82.458000
11
131.641000
21
121.393000
 0 
ENDSEC
 0 
EOF