999
"DXF R12 Output" (www.mydxf.blogspot.com)
 0 
SECTION
 2 
HEADER
 9 
$ACADVER
 1 
AC1009
 9 
$EXTMIN
 10 
 0 
 20 
 0 
 9 
$EXTMAX
 10 
 8.5 
 20 
 11 
 0 
ENDSEC
 0 
SECTION
 2 
ENTITIES
0
LINE
8
Layer 1
10
0.793749
20
301.831000
11
-0.793749
21
300.243000
0
LINE
8
Layer 1
10
0.000000
20
302.360000
11
0.000000
21
299.714000
0
LINE
8
Layer 1
10
2.116660
20
299.979000
11
1.058330
21
298.920670
0
LINE
8
Layer 1
10
1.587500
20
300.508000
11
0.529170
21
299.449670
0
LINE
8
Layer 1
10
1.058330
20
301.037000
11
0.000000
21
299.978670
0
LINE
8
Layer 1
10
0.793749
20
301.831000
11
-0.793749
21
300.243000
0
LINE
8
Layer 1
10
0.000000
20
302.360000
11
0.000000
21
299.714000
0
LINE
8
Layer 1
10
2.116660
20
299.979000
11
1.058330
21
298.920670
0
LINE
8
Layer 1
10
1.587500
20
300.508000
11
0.529170
21
299.449670
0
LINE
8
Layer 1
10
1.058330
20
301.037000
11
0.000000
21
299.978670
0
LINE
8
Bakgrunn
10
62.998400
20
98.752600
11
62.998400
21
62.085900
0
LINE
8
Bakgrunn
10
62.998400
20
62.085900
11
236.332000
21
62.085900
0
LINE
8
Bakgrunn
10
236.332000
20
62.085900
11
236.332000
21
98.752600
0
LINE
8
Bakgrunn
10
236.332000
20
98.752600
11
62.998400
21
98.752600
0
LINE
8
Bokstaver
10
217.999000
20
64.585800
11
211.816840
21
66.419140
0
LINE
8
Bokstaver
10
211.816840
20
66.419140
11
207.993490
21
75.585820
0
LINE
8
Bokstaver
10
207.993490
20
75.585820
11
203.619730
21
68.481740
0
LINE
8
Bokstaver
10
203.619730
20
68.481740
11
198.509320
21
69.718200
0
LINE
8
Bokstaver
10
198.509320
20
69.718200
11
205.622160
21
81.271200
0
LINE
8
Bokstaver
10
205.622160
20
81.271200
11
200.068740
21
94.585800
0
LINE
8
Bokstaver
10
200.068740
20
94.585800
11
205.486000
21
94.585800
0
LINE
8
Bokstaver
10
205.486000
20
94.585800
11
208.851510
21
86.516800
0
LINE
8
Bokstaver
10
208.851510
20
86.516800
11
213.819340
21
94.585800
0
LINE
8
Bokstaver
10
213.819340
20
94.585800
11
219.691000
21
94.585800
0
LINE
8
Bokstaver
10
219.691000
20
94.585800
11
211.222840
21
80.831400
0
LINE
8
Bokstaver
10
211.222840
20
80.831400
11
217.999000
21
64.585800
0
LINE
8
Bokstaver
10
143.165000
20
74.252400
11
137.618340
21
73.929920
0
LINE
8
Bokstaver
10
137.618340
20
73.929920
11
135.498320
21
76.069090
0
LINE
8
Bokstaver
10
135.498320
20
76.069090
11
133.831650
21
75.919075
0
LINE
8
Bokstaver
10
133.831650
20
75.919075
11
133.832000
21
73.709800
0
LINE
8
Bokstaver
10
133.832000
20
73.709800
11
128.831990
21
73.419102
0
LINE
8
Bokstaver
10
128.831990
20
73.419102
11
128.832000
21
94.585800
0
LINE
8
Bokstaver
10
128.832000
20
94.585800
11
133.832000
21
94.585800
0
LINE
8
Bokstaver
10
133.832000
20
94.585800
11
135.302890
21
94.469617
0
LINE
8
Bokstaver
10
135.302890
20
94.469617
11
136.711276
21
94.131184
0
LINE
8
Bokstaver
10
136.711276
20
94.131184
11
138.035921
21
93.585666
0
LINE
8
Bokstaver
10
138.035921
20
93.585666
11
139.255589
21
92.848225
0
LINE
8
Bokstaver
10
139.255589
20
92.848225
11
140.349046
21
91.934023
0
LINE
8
Bokstaver
10
140.349046
20
91.934023
11
141.295054
21
90.858225
0
LINE
8
Bokstaver
10
141.295054
20
90.858225
11
142.072379
21
89.635992
0
LINE
8
Bokstaver
10
142.072379
20
89.635992
11
142.659785
21
88.282489
0
LINE
8
Bokstaver
10
142.659785
20
88.282489
11
143.027418
21
86.853551
0
LINE
8
Bokstaver
10
143.027418
20
86.853551
11
143.164548
21
85.411580
0
LINE
8
Bokstaver
10
143.164548
20
85.411580
11
143.078623
21
83.981583
0
LINE
8
Bokstaver
10
143.078623
20
83.981583
11
142.777091
21
82.588568
0
LINE
8
Bokstaver
10
142.777091
20
82.588568
11
142.267397
21
81.257545
0
LINE
8
Bokstaver
10
142.267397
20
81.257545
11
141.556991
21
80.013520
0
LINE
8
Bokstaver
10
141.556991
20
80.013520
11
140.653319
21
78.881502
0
LINE
8
Bokstaver
10
140.653319
20
78.881502
11
139.563830
21
77.886500
0
LINE
8
Bokstaver
10
139.563830
20
77.886500
11
143.165000
21
74.252400
0
LINE
8
Bokstaver
10
178.399000
20
73.085800
11
186.735130
21
94.585800
0
LINE
8
Bokstaver
10
186.735130
20
94.585800
11
196.732370
21
70.252400
0
LINE
8
Bokstaver
10
196.732370
20
70.252400
11
191.791020
21
71.016062
0
LINE
8
Bokstaver
10
191.791020
20
71.016062
11
190.345880
21
74.533542
0
LINE
8
Bokstaver
10
190.345880
20
74.533542
11
184.545360
21
75.429986
0
LINE
8
Bokstaver
10
184.545360
20
75.429986
11
183.340340
21
72.322076
0
LINE
8
Bokstaver
10
183.340340
20
72.322076
11
178.399000
21
73.085800
0
LINE
8
Bokstaver
10
159.235000
20
94.585800
11
175.068000
21
94.585800
0
LINE
8
Bokstaver
10
175.068000
20
94.585800
11
175.068000
21
89.585800
0
LINE
8
Bokstaver
10
175.068000
20
89.585800
11
164.235000
21
89.585800
0
LINE
8
Bokstaver
10
164.235000
20
89.585800
11
164.235000
21
82.919100
0
LINE
8
Bokstaver
10
164.235000
20
82.919100
11
172.566000
21
82.919100
0
LINE
8
Bokstaver
10
172.566000
20
82.919100
11
172.566000
21
77.919100
0
LINE
8
Bokstaver
10
172.566000
20
77.919100
11
164.232000
21
77.919100
0
LINE
8
Bokstaver
10
164.232000
20
77.919100
11
164.232000
21
74.252400
0
LINE
8
Bokstaver
10
164.232000
20
74.252400
11
159.234770
21
74.419067
0
LINE
8
Bokstaver
10
159.234770
20
74.419067
11
159.235000
21
94.585800
0
LINE
8
Bokstaver
10
148.402000
20
94.585800
11
153.402000
21
94.585800
0
LINE
8
Bokstaver
10
153.402000
20
94.585800
11
153.402000
21
74.585800
0
LINE
8
Bokstaver
10
153.402000
20
74.585800
11
148.402000
21
74.585800
0
LINE
8
Bokstaver
10
148.402000
20
74.585800
11
148.402000
21
94.585800
0
LINE
8
Bokstaver
10
102.998000
20
94.585800
11
107.998000
21
94.585800
0
LINE
8
Bokstaver
10
107.998000
20
94.585800
11
107.998000
21
80.419100
0
LINE
8
Bokstaver
10
107.998000
20
80.419100
11
108.156654
21
79.223226
0
LINE
8
Bokstaver
10
108.156654
20
79.223226
11
108.612051
21
78.127430
0
LINE
8
Bokstaver
10
108.612051
20
78.127430
11
109.333340
21
77.185147
0
LINE
8
Bokstaver
10
109.333340
20
77.185147
11
110.289670
21
76.449811
0
LINE
8
Bokstaver
10
110.289670
20
76.449811
11
111.404655
21
75.989273
0
LINE
8
Bokstaver
10
111.404655
20
75.989273
11
112.581340
21
75.835760
0
LINE
8
Bokstaver
10
112.581340
20
75.835760
11
113.758025
21
75.989273
0
LINE
8
Bokstaver
10
113.758025
20
75.989273
11
114.873010
21
76.449811
0
LINE
8
Bokstaver
10
114.873010
20
76.449811
11
115.829340
21
77.185147
0
LINE
8
Bokstaver
10
115.829340
20
77.185147
11
116.550629
21
78.127430
0
LINE
8
Bokstaver
10
116.550629
20
78.127430
11
117.006026
21
79.223226
0
LINE
8
Bokstaver
10
117.006026
20
79.223226
11
117.164680
21
80.419100
0
LINE
8
Bokstaver
10
117.164680
20
80.419100
11
117.165000
21
94.585800
0
LINE
8
Bokstaver
10
117.165000
20
94.585800
11
122.165000
21
94.585800
0
LINE
8
Bokstaver
10
122.165000
20
94.585800
11
122.165000
21
80.419100
0
LINE
8
Bokstaver
10
122.165000
20
80.419100
11
122.080723
21
79.149693
0
LINE
8
Bokstaver
10
122.080723
20
79.149693
11
121.833268
21
77.918635
0
LINE
8
Bokstaver
10
121.833268
20
77.918635
11
121.430697
21
76.739890
0
LINE
8
Bokstaver
10
121.430697
20
76.739890
11
120.881075
21
75.627425
0
LINE
8
Bokstaver
10
120.881075
20
75.627425
11
120.192463
21
74.595205
0
LINE
8
Bokstaver
10
120.192463
20
74.595205
11
119.372925
21
73.657197
0
LINE
8
Bokstaver
10
119.372925
20
73.657197
11
118.430525
21
72.827365
0
LINE
8
Bokstaver
10
118.430525
20
72.827365
11
117.373325
21
72.119675
0
LINE
8
Bokstaver
10
117.373325
20
72.119675
11
116.231848
21
71.557958
0
LINE
8
Bokstaver
10
116.231848
20
71.557958
11
115.041993
21
71.156731
0
LINE
8
Bokstaver
10
115.041993
20
71.156731
11
113.819884
21
70.915995
0
LINE
8
Bokstaver
10
113.819884
20
70.915995
11
112.581650
21
70.835750
0
LINE
8
Bokstaver
10
112.581650
20
70.835750
11
111.343416
21
70.915995
0
LINE
8
Bokstaver
10
111.343416
20
70.915995
11
110.121307
21
71.156731
0
LINE
8
Bokstaver
10
110.121307
20
71.156731
11
108.931452
21
71.557958
0
LINE
8
Bokstaver
10
108.931452
20
71.557958
11
107.789975
21
72.119675
0
LINE
8
Bokstaver
10
107.789975
20
72.119675
11
106.732775
21
72.827365
0
LINE
8
Bokstaver
10
106.732775
20
72.827365
11
105.790375
21
73.657197
0
LINE
8
Bokstaver
10
105.790375
20
73.657197
11
104.970837
21
74.595205
0
LINE
8
Bokstaver
10
104.970837
20
74.595205
11
104.282225
21
75.627425
0
LINE
8
Bokstaver
10
104.282225
20
75.627425
11
103.732603
21
76.739890
0
LINE
8
Bokstaver
10
103.732603
20
76.739890
11
103.330032
21
77.918635
0
LINE
8
Bokstaver
10
103.330032
20
77.918635
11
103.082577
21
79.149693
0
LINE
8
Bokstaver
10
103.082577
20
79.149693
11
102.998300
21
80.419100
0
LINE
8
Bokstaver
10
102.998300
20
80.419100
11
102.998000
21
94.585800
0
LINE
8
Bokstaver
10
86.331800
20
94.585800
11
91.331800
21
94.585800
0
LINE
8
Bokstaver
10
91.331800
20
94.585800
11
91.331800
21
71.252400
0
LINE
8
Bokstaver
10
91.331800
20
71.252400
11
99.331820
21
73.252400
0
LINE
8
Bokstaver
10
99.331820
20
73.252400
11
99.331800
21
68.252400
0
LINE
8
Bokstaver
10
99.331800
20
68.252400
11
86.331800
21
64.585730
0
LINE
8
Bokstaver
10
86.331800
20
64.585730
11
86.331800
21
94.585800
 0 
ENDSEC
 0 
EOF