999
"DXF R12 Output" (www.mydxf.blogspot.com)
 0 
SECTION
 2 
HEADER
 9 
$ACADVER
 1 
AC1009
 9 
$EXTMIN
 10 
 0 
 20 
 0 
 9 
$EXTMAX
 10 
 8.5 
 20 
 11 
 0 
ENDSEC
 0 
SECTION
 2 
ENTITIES
0
LINE
8
Layer 1
10
0.793749
20
301.831000
11
-0.793749
21
300.243000
0
LINE
8
Layer 1
10
0.000000
20
302.360000
11
0.000000
21
299.714000
0
LINE
8
Layer 1
10
2.116660
20
299.979000
11
1.058330
21
298.920670
0
LINE
8
Layer 1
10
1.587500
20
300.508000
11
0.529170
21
299.449670
0
LINE
8
Layer 1
10
1.058330
20
301.037000
11
0.000000
21
299.978670
0
LINE
8
0
10
187.461000
20
60.737300
11
182.826000
21
62.111900
0
LINE
8
0
10
182.826000
20
62.111900
11
179.959000
21
68.984700
0
LINE
8
0
10
179.959000
20
68.984700
11
176.680000
21
63.658400
0
LINE
8
0
10
176.680000
20
63.658400
11
172.848000
21
64.585400
0
LINE
8
0
10
172.848000
20
64.585400
11
178.181000
21
73.247500
0
LINE
8
0
10
178.181000
20
73.247500
11
174.017000
21
83.230300
0
LINE
8
0
10
174.017000
20
83.230300
11
178.079000
21
83.230300
0
LINE
8
0
10
178.079000
20
83.230300
11
180.602000
21
77.180500
0
LINE
8
0
10
180.602000
20
77.180500
11
184.327000
21
83.230300
0
LINE
8
0
10
184.327000
20
83.230300
11
188.730000
21
83.230300
0
LINE
8
0
10
188.730000
20
83.230300
11
182.380870
21
72.917700
0
LINE
8
0
10
182.380870
20
72.917700
11
187.461000
21
60.737300
0
LINE
8
0
10
131.353000
20
67.985100
11
127.194310
21
67.743316
0
LINE
8
0
10
127.194310
20
67.743316
11
125.604790
21
69.347186
0
LINE
8
0
10
125.604790
20
69.347186
11
124.355180
21
69.234710
0
LINE
8
0
10
124.355180
20
69.234710
11
124.355000
21
67.578200
0
LINE
8
0
10
124.355000
20
67.578200
11
120.606170
21
67.360245
0
LINE
8
0
10
120.606170
20
67.360245
11
120.607000
21
83.230300
0
LINE
8
0
10
120.607000
20
83.230300
11
124.355000
21
83.230300
0
LINE
8
0
10
124.355000
20
83.230300
11
125.457832
21
83.143197
0
LINE
8
0
10
125.457832
20
83.143197
11
126.513800
21
82.889457
0
LINE
8
0
10
126.513800
20
82.889457
11
127.506982
21
82.480448
0
LINE
8
0
10
127.506982
20
82.480448
11
128.421455
21
81.927539
0
LINE
8
0
10
128.421455
20
81.927539
11
129.241299
21
81.242100
0
LINE
8
0
10
129.241299
20
81.242100
11
129.950589
21
80.435499
0
LINE
8
0
10
129.950589
20
80.435499
11
130.533405
21
79.519105
0
LINE
8
0
10
130.533405
20
79.519105
11
130.973824
21
78.504287
0
LINE
8
0
10
130.973824
20
78.504287
11
131.249462
21
77.432910
0
LINE
8
0
10
131.249462
20
77.432910
11
131.352275
21
76.351761
0
LINE
8
0
10
131.352275
20
76.351761
11
131.287846
21
75.279592
0
LINE
8
0
10
131.287846
20
75.279592
11
131.061759
21
74.235152
0
LINE
8
0
10
131.061759
20
74.235152
11
130.679599
21
73.237192
0
LINE
8
0
10
130.679599
20
73.237192
11
130.146950
21
72.304463
0
LINE
8
0
10
130.146950
20
72.304463
11
129.469396
21
71.455715
0
LINE
8
0
10
129.469396
20
71.455715
11
128.652520
21
70.709700
0
LINE
8
0
10
128.652520
20
70.709700
11
131.353000
21
67.985100
0
LINE
8
0
10
157.770000
20
67.110300
11
164.020130
21
83.230300
0
LINE
8
0
10
164.020130
20
83.230300
11
171.515710
21
64.986000
0
LINE
8
0
10
171.515710
20
64.986000
11
167.810860
21
65.558567
0
LINE
8
0
10
167.810860
20
65.558567
11
166.727350
21
68.195847
0
LINE
8
0
10
166.727350
20
68.195847
11
162.378330
21
68.867969
0
LINE
8
0
10
162.378330
20
68.867969
11
161.474851
21
66.537769
0
LINE
8
0
10
161.474851
20
66.537769
11
157.770000
21
67.110300
0
LINE
8
0
10
143.402000
20
83.230300
11
155.273000
21
83.230300
0
LINE
8
0
10
155.273000
20
83.230300
11
155.273000
21
79.481500
0
LINE
8
0
10
155.273000
20
79.481500
11
147.151000
21
79.481500
0
LINE
8
0
10
147.151000
20
79.481500
11
147.151000
21
74.483000
0
LINE
8
0
10
147.151000
20
74.483000
11
153.397000
21
74.483000
0
LINE
8
0
10
153.397000
20
74.483000
11
153.397000
21
70.734200
0
LINE
8
0
10
153.397000
20
70.734200
11
147.149000
21
70.734200
0
LINE
8
0
10
147.149000
20
70.734200
11
147.149000
21
67.985100
0
LINE
8
0
10
147.149000
20
67.985100
11
143.402250
21
68.110061
0
LINE
8
0
10
143.402250
20
68.110061
11
143.402000
21
83.230300
0
LINE
8
0
10
135.279000
20
83.230300
11
139.028000
21
83.230300
0
LINE
8
0
10
139.028000
20
83.230300
11
139.028000
21
68.235000
0
LINE
8
0
10
139.028000
20
68.235000
11
135.279000
21
68.235000
0
LINE
8
0
10
135.279000
20
68.235000
11
135.279000
21
83.230300
0
LINE
8
0
10
101.238000
20
83.230300
11
104.987000
21
83.230300
0
LINE
8
0
10
104.987000
20
83.230300
11
104.987000
21
72.608600
0
LINE
8
0
10
104.987000
20
72.608600
11
105.258737
21
71.272869
0
LINE
8
0
10
105.258737
20
71.272869
11
105.995575
21
70.182467
0
LINE
8
0
10
105.995575
20
70.182467
11
107.087233
21
69.447490
0
LINE
8
0
10
107.087233
20
69.447490
11
108.423425
21
69.178032
0
LINE
8
0
10
108.423425
20
69.178032
11
109.759617
21
69.447490
0
LINE
8
0
10
109.759617
20
69.447490
11
110.851275
21
70.182467
0
LINE
8
0
10
110.851275
20
70.182467
11
111.588113
21
71.272869
0
LINE
8
0
10
111.588113
20
71.272869
11
111.859850
21
72.608600
0
LINE
8
0
10
111.859850
20
72.608600
11
111.859000
21
83.230300
0
LINE
8
0
10
111.859000
20
83.230300
11
115.608000
21
83.230300
0
LINE
8
0
10
115.608000
20
83.230300
11
115.608000
21
72.608600
0
LINE
8
0
10
115.608000
20
72.608600
11
115.459931
21
71.162380
0
LINE
8
0
10
115.459931
20
71.162380
11
115.039900
21
69.815623
0
LINE
8
0
10
115.039900
20
69.815623
11
114.376733
21
68.597105
0
LINE
8
0
10
114.376733
20
68.597105
11
113.499256
21
67.535605
0
LINE
8
0
10
113.499256
20
67.535605
11
112.436293
21
66.659900
0
LINE
8
0
10
112.436293
20
66.659900
11
111.216671
21
65.998767
0
LINE
8
0
10
111.216671
20
65.998767
11
109.869215
21
65.580984
0
LINE
8
0
10
109.869215
20
65.580984
11
108.422750
21
65.435328
0
LINE
8
0
10
108.422750
20
65.435328
11
106.976285
21
65.580984
0
LINE
8
0
10
106.976285
20
65.580984
11
105.628829
21
65.998767
0
LINE
8
0
10
105.628829
20
65.998767
11
104.409207
21
66.659900
0
LINE
8
0
10
104.409207
20
66.659900
11
103.346244
21
67.535605
0
LINE
8
0
10
103.346244
20
67.535605
11
102.468767
21
68.597105
0
LINE
8
0
10
102.468767
20
68.597105
11
101.805600
21
69.815623
0
LINE
8
0
10
101.805600
20
69.815623
11
101.385569
21
71.162380
0
LINE
8
0
10
101.385569
20
71.162380
11
101.237500
21
72.608600
0
LINE
8
0
10
101.237500
20
72.608600
11
101.238000
21
83.230300
0
LINE
8
0
10
88.741600
20
83.230300
11
92.490400
21
83.230300
0
LINE
8
0
10
92.490400
20
83.230300
11
92.490400
21
65.735800
0
LINE
8
0
10
92.490400
20
65.735800
11
98.488530
21
67.235330
0
LINE
8
0
10
98.488530
20
67.235330
11
98.488600
21
63.486500
0
LINE
8
0
10
98.488600
20
63.486500
11
88.741640
21
60.737360
0
LINE
8
0
10
88.741640
20
60.737360
11
88.741600
21
83.230300
 0 
ENDSEC
 0 
EOF